<?xml version="1.0" encoding="UTF-8" standalone="no"?>
<svg
   fill="currentColor"
   version="1.1"
   id="Layer_1"
   viewBox="0 0 24 24"
   enable-background="new 0 0 24 24"
   xml:space="preserve"
   sodipodi:docname="copy.svg"
   inkscape:version="1.2.2 (b0a84865, 2022-12-01)"
   xmlns:inkscape="http://www.inkscape.org/namespaces/inkscape"
   xmlns:sodipodi="http://sodipodi.sourceforge.net/DTD/sodipodi-0.dtd"
   xmlns="http://www.w3.org/2000/svg"
   xmlns:svg="http://www.w3.org/2000/svg"><defs
   id="defs10" /><sodipodi:namedview
   id="namedview8"
   pagecolor="#ffffff"
   bordercolor="#000000"
   borderopacity="0.25"
   inkscape:showpageshadow="2"
   inkscape:pageopacity="0.0"
   inkscape:pagecheckerboard="0"
   inkscape:deskcolor="#d1d1d1"
   showgrid="false"
   inkscape:zoom="42.791667"
   inkscape:cx="11.988315"
   inkscape:cy="12"
   inkscape:window-width="1394"
   inkscape:window-height="1207"
   inkscape:window-x="0"
   inkscape:window-y="25"
   inkscape:window-maximized="0"
   inkscape:current-layer="Layer_1" /><path
   d="m 20.16442,4.8571564 h -1.474073 c -0.03072,0 -0.05802,0.00887 -0.08659,0.014687 V 3.569625 C 18.603759,2.7040625 17.747688,2 16.695224,2 H 3.9085347 C 2.8560714,2 2,2.7040625 2,3.569625 v 14.638531 c 0,0.865562 0.8560714,1.569625 1.9085351,1.569625 H 6.1509402 V 20.4865 c 0,0.834562 0.8232709,1.5135 1.8355799,1.5135 H 20.164421 C 21.17673,22 22,21.321062 22,20.4865 V 6.3706562 C 22,5.5360938 21.176729,4.8571564 20.16442,4.8571564 Z M 2.7546994,18.208156 V 3.569625 c 0,-0.51525 0.517781,-0.9346875 1.1538357,-0.9346875 H 16.695224 c 0.636056,0 1.153836,0.4194375 1.153836,0.9346875 v 14.638531 c 0,0.51525 -0.51778,0.934719 -1.153836,0.934719 H 3.9085351 c -0.6360547,0 -1.1538357,-0.419469 -1.1538357,-0.934719 z M 21.245263,20.4865 c 0,0.484563 -0.484944,0.878594 -1.080843,0.878594 H 7.9865191 c -0.595899,0 -1.0808801,-0.394031 -1.0808801,-0.878594 v -0.708718 h 9.789584 c 1.052464,0 1.908535,-0.704064 1.908535,-1.569626 V 5.477375 c 0.02857,0.00581 0.05587,0.014687 0.08659,0.014687 h 1.474073 c 0.595899,0 1.080842,0.3940312 1.080842,0.8785937 z"
   id="path4"
   style="stroke-width:0.340708" /> <path
   d="M 14.452819,6.127 H 6.1509402 c -0.2085759,0 -0.3773687,0.1419687 -0.3773687,0.3174375 0,0.1755 0.1687928,0.3174687 0.3773687,0.3174687 h 8.3018788 c 0.208577,0 0.377369,-0.1419687 0.377369,-0.3174687 C 14.830188,6.2689687 14.661396,6.127 14.452819,6.127 Z"
   id="path6"
   style="stroke-width:0.340708" /> <path
   d="M 14.452819,8.6666878 H 6.1509402 c -0.2085759,0 -0.3773687,0.1419688 -0.3773687,0.3174369 0,0.175469 0.1687928,0.3174694 0.3773687,0.3174694 h 8.3018788 c 0.208577,0 0.377369,-0.1420004 0.377369,-0.3174694 0,-0.1754681 -0.168792,-0.3174369 -0.377369,-0.3174369 z"
   id="path8"
   style="stroke-width:0.340708" /> <path
   d="M 14.452819,11.206344 H 6.1509402 c -0.2085759,0 -0.3773687,0.141999 -0.3773687,0.317469 0,0.175469 0.1687928,0.317468 0.3773687,0.317468 h 8.3018788 c 0.208577,0 0.377369,-0.141999 0.377369,-0.317468 0,-0.17547 -0.168792,-0.317469 -0.377369,-0.317469 z"
   id="path10"
   style="stroke-width:0.340708" /> <path
   d="M 10.679247,13.746031 H 6.1509402 c -0.2085759,0 -0.3773687,0.142 -0.3773687,0.317469 0,0.175469 0.1687928,0.317468 0.3773687,0.317468 h 4.5283068 c 0.208577,0 0.377332,-0.141999 0.377332,-0.317468 0,-0.175469 -0.168755,-0.317469 -0.377332,-0.317469 z"
   id="path12"
   style="stroke-width:0.340708" /> </svg>
